/* XPM */
static char *cf1ff51f65d74742faf7fe6839df294e6WUsApaGOCg2Sug0[] = {
/* columns rows colors chars-per-pixel */
"50 50 33 1 ",
"  c black",
". c #B21623",
"X c #B51E2A",
"o c #B92834",
"O c #BA2C38",
"+ c #C03E48",
"@ c #8E96AC",
"# c #8F97AD",
"$ c #9097AE",
"% c #9198AF",
"& c #9199B0",
"* c #9299B0",
"= c #979EB5",
"- c #A4ACC2",
"; c #A5ACC2",
": c #C0C7DD",
"> c #C1C8DE",
", c #C2C9DE",
"< c #C2C9DF",
"1 c #C4CBE0",
"2 c #C7CEE3",
"3 c #C8CFE4",
"4 c #E4E7F1",
"5 c #E7EAF3",
"6 c #EEF0F6",
"7 c #FBF2F3",
"8 c #FBF3F4",
"9 c #FCF7F7",
"0 c #F4F5F9",
"q c #F5F6FA",
"w c #FDF8F9",
"e c #FEFBFB",
"r c white",
/* pixels */
"                                                  ",
"                                                  ",
"                                                  ",
"                                                  ",
"                                                  ",
"                                                  ",
"                                                  ",
"                                                  ",
"                                                  ",
"                                                  ",
"                                                  ",
"                                                  ",
"                                                  ",
"                                                  ",
"                                                  ",
"                                                  ",
"                                                  ",
"                      rrrrr                       ",
"                      rwrrr                       ",
"           333333333339o7Or333333333333           ",
"           33333333333r7.8r333333333333           ",
"           33333333222r+9Xw333333333333           ",
"           3333333:>>>rrr8r>11133333333           ",
"           3333333=**%4560q####33333333           ",
"           3333333333333333323333333333           ",
"           3333333333333333333333333333           ",
"           3333333333333333333333333333           ",
"           3333333333333333333333333333           ",
"           ----------------------------           ",
"           3333333333333333333333333333           ",
"           3333333333333333333333333333           ",
"           3333333333333333333333333333           ",
"           3333333333333333333333333333           ",
"           3333333333333333333333333333           ",
"           3333333333333333333333333333           ",
"           3333333333333333333333333333           ",
"           3333333333333333333333333333           ",
"           3333333333333333333333333333           ",
"           3333333333333333333333333333           ",
"           3333333333333333333333333333           ",
"           3333333333333333333333333333           ",
"           3333333333333333333333333333           ",
"           3333333333333333333333333333           ",
"           3333333333333333333333333333           ",
"           3333333333333333333333333333           ",
"           3333333333333333333333333333           ",
"           3333333333333333333333333333           ",
"           3333333333333333333333333333           ",
"           3333333333333333333333333333           ",
"           3333333333333333333333333333           "
};
